<?xml version="1.0" encoding="UTF-8"?>
<svg xmlns="http://www.w3.org/2000/svg" xmlns:xlink="http://www.w3.org/1999/xlink" width="514.74pt" height="514.74pt" viewBox="0 0 514.74 514.74" version="1.1">
<defs>
<clipPath id="clip1">
  <path d="M 0 0 L 514.738281 0 L 514.738281 514.738281 L 0 514.738281 Z M 0 0 "/>
</clipPath>
</defs>
<g id="surface1">
<path style=" stroke:none;fill-rule:nonzero;fill:rgb(100%,100%,100%);fill-opacity:1;" d="M 511.429688 257.367188 C 511.429688 397.679688 397.683594 511.425781 257.371094 511.425781 C 117.058594 511.425781 3.316406 397.679688 3.316406 257.367188 C 3.316406 117.054688 117.058594 3.308594 257.371094 3.308594 C 397.683594 3.308594 511.429688 117.054688 511.429688 257.367188 "/>
<g clip-path="url(#clip1)" clip-rule="nonzero">
<path style=" stroke:none;fill-rule:nonzero;fill:rgb(89.7995%,13.699341%,16.499329%);fill-opacity:1;" d="M 257.371094 6.625 C 119.113281 6.625 6.628906 119.109375 6.628906 257.367188 C 6.628906 395.628906 119.113281 508.113281 257.371094 508.113281 C 395.632813 508.113281 508.117188 395.628906 508.117188 257.367188 C 508.117188 119.109375 395.632813 6.625 257.371094 6.625 M 257.371094 514.738281 C 188.625 514.738281 123.992188 487.96875 75.382813 439.359375 C 26.773438 390.746094 0 326.113281 0 257.367188 C 0 188.621094 26.773438 123.988281 75.382813 75.378906 C 123.992188 26.769531 188.625 -0.00390625 257.371094 -0.00390625 C 326.117188 -0.00390625 390.75 26.769531 439.363281 75.378906 C 487.972656 123.988281 514.742188 188.621094 514.742188 257.367188 C 514.742188 326.113281 487.972656 390.746094 439.363281 439.359375 C 390.75 487.96875 326.117188 514.738281 257.371094 514.738281 "/>
</g>
<path style=" stroke:none;fill-rule:nonzero;fill:rgb(100%,100%,100%);fill-opacity:1;" d="M 433.175781 254.675781 C 433.175781 351.234375 354.898438 429.515625 258.339844 429.515625 C 161.777344 429.515625 83.5 351.234375 83.5 254.675781 C 83.5 158.113281 161.777344 79.835938 258.339844 79.835938 C 354.898438 79.835938 433.175781 158.113281 433.175781 254.675781 "/>
<path style=" stroke:none;fill-rule:nonzero;fill:rgb(89.7995%,13.699341%,16.499329%);fill-opacity:1;" d="M 258.339844 83.152344 C 163.757813 83.152344 86.816406 160.097656 86.816406 254.675781 C 86.816406 349.253906 163.757813 426.199219 258.339844 426.199219 C 352.917969 426.199219 429.863281 349.253906 429.863281 254.675781 C 429.863281 160.097656 352.917969 83.152344 258.339844 83.152344 M 258.339844 432.828125 C 210.753906 432.828125 166.015625 414.296875 132.367188 380.648438 C 98.71875 347 80.183594 302.261719 80.183594 254.675781 C 80.183594 207.089844 98.71875 162.351563 132.367188 128.703125 C 166.015625 95.054688 210.753906 76.523438 258.339844 76.523438 C 305.925781 76.523438 350.664063 95.054688 384.3125 128.703125 C 417.960938 162.351563 436.492188 207.089844 436.492188 254.675781 C 436.492188 302.261719 417.960938 347 384.3125 380.648438 C 350.664063 414.296875 305.925781 432.828125 258.339844 432.828125 "/>
<path style=" stroke:none;fill-rule:nonzero;fill:rgb(89.7995%,13.699341%,16.499329%);fill-opacity:1;" d="M 83.089844 188.136719 L 79.53125 191.078125 L 81.253906 194.230469 L 78.039063 196.929688 L 79.917969 200.253906 L 83.390625 197.203125 L 81.820313 194.558594 L 84.945313 191.597656 "/>
<path style=" stroke:none;fill-rule:nonzero;fill:rgb(89.7995%,13.699341%,16.499329%);fill-opacity:1;" d="M 80.0625 180.605469 C 80.03125 179.710938 79.960938 178.820313 79.851563 177.929688 C 79.699219 176.703125 79.460938 175.464844 78.835938 174.398438 C 78.214844 173.335938 77.136719 172.46875 75.90625 172.390625 C 74.019531 172.273438 72.539063 173.90625 71.371094 175.394531 C 69.957031 177.195313 68.542969 178.992188 67.128906 180.792969 C 66.789063 180.445313 66.753906 179.902344 66.78125 179.410156 C 67.09375 174.269531 72.273438 170.21875 72.019531 165.070313 C 71.863281 161.953125 69.613281 159.21875 66.847656 157.777344 C 64.785156 156.695313 60.070313 155.121094 57.871094 156.175781 C 58.636719 157.722656 59.835938 159.15625 60.8125 160.589844 C 61.265625 161.257813 61.820313 161.988281 62.621094 162.085938 C 63.34375 162.175781 64.003906 161.714844 64.660156 161.40625 C 65.320313 161.097656 66.238281 161 66.65625 161.59375 C 66.941406 162 66.855469 162.550781 66.726563 163.03125 C 65.679688 166.871094 62.628906 169.953125 61.757813 173.835938 C 60.910156 177.625 62.453125 181.839844 65.546875 184.183594 C 66.730469 185.078125 68.308594 185.722656 69.691406 185.183594 C 70.847656 184.730469 71.554688 183.585938 72.160156 182.503906 C 73.425781 180.25 74.621094 177.960938 75.742188 175.632813 C 76.175781 175.5 76.375 176.15625 76.335938 176.609375 C 75.800781 182.765625 73.910156 188.800781 70.835938 194.164063 C 69.15625 197.097656 66.589844 200.117188 63.210938 200.09375 C 60.21875 200.070313 57.851563 197.667969 55.851563 195.445313 C 55.582031 195.683594 55.316406 195.925781 55.046875 196.167969 C 56.910156 198.394531 58.816406 200.652344 61.246094 202.246094 C 63.675781 203.835938 66.753906 204.6875 69.527344 203.824219 C 72.570313 202.878906 74.664063 200.109375 76.160156 197.292969 C 78.867188 192.1875 80.273438 186.375 80.0625 180.605469 "/>
<path style=" stroke:none;fill-rule:nonzero;fill:rgb(89.7995%,13.699341%,16.499329%);fill-opacity:1;" d="M 81.613281 168.484375 L 79.382813 164.285156 L 74.84375 166.980469 L 77.058594 171.207031 Z M 81.613281 168.484375 "/>
<path style=" stroke:none;fill-rule:nonzero;fill:rgb(89.7995%,13.699341%,16.499329%);fill-opacity:1;" d="M 86.503906 110.472656 L 85.390625 105.898438 L 80.359375 107.398438 L 81.472656 112.0625 Z M 86.503906 110.472656 "/>
<path style=" stroke:none;fill-rule:nonzero;fill:rgb(89.7995%,13.699341%,16.499329%);fill-opacity:1;" d="M 127.132813 92.449219 C 126.640625 92.839844 124.683594 93.03125 121.265625 93.027344 C 121.175781 92.125 121.074219 91.234375 120.964844 90.347656 C 120.847656 89.117188 120.996094 88.335938 121.417969 88 C 121.890625 87.625 122.632813 87.660156 123.640625 88.109375 C 124.800781 88.632813 125.898438 89.546875 126.929688 90.847656 C 127.503906 91.566406 127.570313 92.101563 127.132813 92.449219 M 136.996094 69.542969 C 133.746094 66.316406 130.648438 62.449219 131.375 58.054688 C 129.367188 57.707031 127.410156 57.070313 125.585938 56.167969 C 124.246094 58.355469 124.738281 61.269531 126.066406 63.460938 C 127.394531 65.65625 129.421875 67.316406 131.3125 69.042969 C 134.253906 71.730469 136.945313 74.6875 139.355469 77.859375 C 139.894531 78.566406 140.445313 79.417969 140.230469 80.28125 C 140.066406 80.929688 139.519531 81.386719 138.996094 81.804688 C 135.859375 84.308594 132.238281 86.957031 128.253906 86.457031 C 126.726563 86.265625 125.292969 85.609375 123.785156 85.3125 C 122.273438 85.015625 120.519531 85.15625 119.472656 86.28125 C 117.691406 88.195313 119.054688 91.265625 118.832031 93.871094 C 118.589844 96.734375 116.375 98.984375 114.296875 100.96875 C 109.15625 105.867188 104.019531 110.769531 98.882813 115.667969 C 100.363281 113.71875 99.515625 110.613281 97.457031 109.289063 C 95.398438 107.964844 92.582031 108.257813 90.507813 109.554688 C 88.371094 110.898438 86.152344 113.769531 85.679688 116.28125 C 85.417969 117.667969 85.503906 119.121094 85.882813 120.480469 C 85.992188 120.871094 87.394531 124.390625 87.90625 124.164063 C 89.753906 123.351563 91.597656 122.539063 93.445313 121.722656 C 89.304688 127.484375 85.164063 133.242188 81.027344 139.003906 C 79.371094 141.304688 76.90625 143.902344 74.203125 143.039063 C 74.996094 145.136719 75.789063 147.238281 76.582031 149.335938 C 79.328125 149.464844 82.097656 149.09375 84.710938 148.242188 C 88.253906 155.265625 87.679688 164.191406 83.261719 170.699219 C 87.371094 168.824219 91.386719 165.746094 92.378906 161.339844 C 93.054688 158.332031 92.1875 155.136719 90.601563 152.492188 C 89.023438 149.847656 86.773438 147.671875 84.488281 145.605469 C 86.519531 141.148438 90.15625 137.671875 93.113281 133.773438 C 96.074219 129.875 98.46875 124.984375 97.363281 120.21875 C 101.050781 120.875 104.765625 119.019531 107.59375 116.566406 C 110.425781 114.113281 112.671875 111.050781 115.46875 108.5625 C 117.066406 107.136719 118.851563 105.894531 120.171875 104.210938 C 121.488281 102.523438 122.289063 100.226563 121.539063 98.222656 C 124.347656 98.792969 127.320313 99.355469 130.023438 98.40625 C 132.730469 97.460938 134.914063 94.402344 133.859375 91.738281 C 138.441406 90.53125 143.507813 88.152344 144.59375 83.539063 C 145.742188 78.664063 141.855469 74.171875 138.21875 70.722656 C 137.8125 70.339844 137.402344 69.945313 136.996094 69.542969 "/>
<path style=" stroke:none;fill-rule:nonzero;fill:rgb(89.7995%,13.699341%,16.499329%);fill-opacity:1;" d="M 150.046875 61.535156 C 146.992188 57.554688 144.75 54.488281 143.328125 52.328125 C 142.722656 54.144531 142.363281 55.34375 142.261719 55.914063 C 142.015625 57.242188 142.15625 58.371094 142.683594 59.308594 C 143.167969 60.179688 144.082031 61.382813 145.421875 62.914063 C 146.925781 64.648438 148.441406 66.378906 149.964844 68.097656 C 152.480469 71.058594 154.707031 74.15625 156.652344 77.390625 L 157.78125 76.761719 C 157.539063 74.003906 156.902344 71.695313 155.859375 69.835938 C 154.847656 68.03125 152.910156 65.261719 150.046875 61.535156 "/>
<path style=" stroke:none;fill-rule:nonzero;fill:rgb(89.7995%,13.699341%,16.499329%);fill-opacity:1;" d="M 240.398438 48.042969 C 239.773438 48.101563 238.03125 47.1875 235.175781 45.308594 C 235.59375 44.507813 235.996094 43.703125 236.390625 42.902344 C 236.96875 41.808594 237.523438 41.238281 238.058594 41.191406 C 238.660156 41.136719 239.261719 41.570313 239.859375 42.5 C 240.539063 43.574219 240.957031 44.941406 241.105469 46.59375 C 241.191406 47.511719 240.953125 47.992188 240.398438 48.042969 M 284.789063 37.285156 C 284.402344 37.121094 284.015625 36.949219 283.632813 36.773438 C 281.195313 35.65625 278.570313 34.308594 275.96875 34.941406 C 273.011719 35.664063 271.25 38.664063 270.121094 41.492188 C 274.632813 40.398438 279.609375 41.394531 283.347656 44.144531 C 272.613281 46.183594 261.582031 45.800781 250.660156 45.410156 C 249.128906 45.355469 247.542969 45.289063 246.171875 44.605469 C 244.371094 43.707031 243.234375 41.910156 241.800781 40.5 C 240.363281 39.09375 238.125 38.035156 236.386719 39.042969 C 234.933594 39.886719 234.523438 41.746094 233.703125 43.210938 C 232.089844 46.09375 228.71875 47.539063 225.464844 48.117188 C 222.210938 48.695313 218.847656 48.609375 215.644531 49.414063 C 213.507813 49.953125 211.464844 50.882813 209.28125 51.160156 C 207.097656 51.4375 204.609375 50.898438 203.351563 49.089844 C 202.519531 51.160156 201.683594 53.230469 200.847656 55.304688 C 202.757813 57.246094 205.003906 58.855469 207.457031 60.03125 C 208.265625 60.421875 204.082031 67.035156 203.617188 67.617188 C 201.789063 69.917969 199.496094 71.855469 196.910156 73.257813 C 195.710938 73.90625 194.066406 74.171875 192.964844 74.898438 C 191.261719 76.019531 193.195313 76.230469 194.542969 76.425781 C 197.816406 76.894531 201.382813 76.792969 204.222656 74.886719 C 206.792969 73.164063 208.34375 70.207031 208.976563 67.171875 C 209.609375 64.140625 209.429688 61.003906 209.175781 57.914063 C 214.183594 56.390625 219.320313 55.300781 224.515625 54.660156 C 226.140625 54.460938 227.804688 54.292969 229.292969 53.617188 C 230.785156 52.941406 232.101563 51.636719 232.308594 50.011719 C 234.035156 50.910156 235.496094 52.238281 237.121094 53.304688 C 238.75 54.371094 240.671875 55.203125 242.597656 54.914063 C 244.519531 54.621094 246.308594 52.859375 246.03125 50.933594 C 247.671875 51.992188 249.746094 52.03125 251.699219 52.035156 C 256.46875 52.050781 261.230469 52.0625 265.996094 52.074219 C 268.351563 52.082031 270.734375 52.082031 273.011719 51.503906 C 275.851563 50.785156 278.382813 49.207031 281.0625 48.03125 C 286.695313 45.554688 293.09375 44.867188 299.121094 46.089844 C 299.613281 44.460938 300.101563 42.835938 300.59375 41.207031 C 295.160156 40.761719 289.800781 39.433594 284.789063 37.285156 "/>
<path style=" stroke:none;fill-rule:nonzero;fill:rgb(89.7995%,13.699341%,16.499329%);fill-opacity:1;" d="M 323.289063 27.601563 C 323.589844 27.453125 323.941406 27.023438 324.34375 26.308594 C 323.648438 26.449219 322.675781 26.332031 321.425781 25.964844 C 320.3125 25.636719 318.960938 24.503906 317.375 22.566406 C 318.285156 22.101563 319.121094 21.980469 319.882813 22.207031 C 320.484375 22.382813 321.277344 22.976563 322.269531 23.980469 C 323.140625 23.242188 323.644531 22.644531 323.777344 22.195313 C 324.054688 21.257813 323.601563 20.613281 322.417969 20.265625 C 321.324219 19.941406 320.023438 20.117188 318.515625 20.792969 C 316.507813 21.6875 315.394531 22.492188 315.183594 23.203125 C 314.953125 23.988281 315.460938 24.894531 316.710938 25.914063 C 315.621094 25.921875 314.839844 26.011719 314.375 26.1875 C 313.910156 26.367188 313.363281 26.78125 312.734375 27.429688 L 321.371094 27.753906 C 322.351563 27.796875 322.992188 27.746094 323.289063 27.601563 "/>
<path style=" stroke:none;fill-rule:nonzero;fill:rgb(89.7995%,13.699341%,16.499329%);fill-opacity:1;" d="M 326.289063 59.621094 C 326.175781 59.996094 325.828125 60.148438 325.242188 60.078125 C 324.820313 60.035156 324.027344 59.839844 322.867188 59.496094 L 321.230469 59.015625 C 322.6875 58.589844 324.183594 57.921875 325.714844 57.007813 L 325.890625 57.640625 C 326.222656 58.734375 326.355469 59.398438 326.289063 59.621094 M 331.980469 35.683594 C 331.835938 36.171875 331.785156 37.542969 331.835938 39.800781 C 331.882813 42.058594 331.605469 44.207031 331.003906 46.25 C 330.5625 47.75 330.183594 48.777344 329.871094 49.339844 C 329.585938 49.824219 328.90625 50.632813 327.847656 51.765625 C 326.671875 47.773438 325.910156 45.308594 325.554688 44.378906 C 325.199219 43.449219 324.269531 41.5 322.769531 38.527344 C 321.511719 36.058594 320.621094 34.398438 320.09375 33.550781 C 319.230469 32.214844 317.945313 30.601563 316.25 28.714844 C 312.914063 30.808594 311.085938 32.398438 310.765625 33.484375 C 310.378906 34.796875 311.011719 36.675781 312.664063 39.117188 C 314.050781 41.160156 314.980469 42.25 315.445313 42.386719 C 316.117188 42.585938 317.070313 42.101563 318.3125 40.941406 C 320.898438 44.742188 323.199219 49.304688 325.21875 54.628906 C 322.351563 56.125 319.714844 57.199219 317.3125 57.855469 L 314.703125 57.085938 L 312.851563 63.355469 L 318.003906 64.878906 C 321.507813 65.914063 324.0625 66.210938 325.671875 65.769531 C 327.070313 65.386719 328.03125 64.316406 328.550781 62.554688 C 329.09375 60.714844 329.101563 58.066406 328.570313 54.609375 C 330.761719 52.609375 332.148438 51.113281 332.730469 50.125 C 333.394531 49.035156 334.230469 46.777344 335.246094 43.34375 C 335.796875 41.472656 336.285156 40.238281 336.699219 39.648438 C 337.101563 39.113281 337.914063 38.539063 339.140625 37.921875 C 337.742188 35.757813 336.808594 33.871094 336.335938 32.265625 C 333.816406 33.234375 332.367188 34.375 331.980469 35.683594 "/>
<path style=" stroke:none;fill-rule:nonzero;fill:rgb(89.7995%,13.699341%,16.499329%);fill-opacity:1;" d="M 346.660156 45.875 C 346.269531 46.792969 345.875 48.25 345.480469 50.25 C 345.023438 52.5 344.585938 54.753906 344.152344 57.011719 C 343.34375 60.8125 342.253906 64.46875 340.882813 67.984375 L 342.070313 68.488281 C 344.105469 66.617188 345.539063 64.699219 346.378906 62.742188 C 347.1875 60.835938 348.195313 57.609375 349.398438 53.066406 C 350.679688 48.21875 351.742188 44.566406 352.578125 42.121094 C 350.769531 42.753906 349.605469 43.199219 349.085938 43.46875 C 347.890625 44.085938 347.078125 44.886719 346.660156 45.875 "/>
<path style=" stroke:none;fill-rule:nonzero;fill:rgb(89.7995%,13.699341%,16.499329%);fill-opacity:1;" d="M 409.609375 79.558594 C 410.53125 78.34375 411.925781 77.695313 413.796875 77.617188 C 413.390625 75.839844 413.226563 73.804688 413.304688 71.507813 C 410.691406 71.21875 408.882813 71.738281 407.878906 73.0625 C 407.21875 73.9375 406.425781 75.75 405.503906 78.511719 C 404.253906 82.242188 403.210938 85.046875 402.378906 86.914063 C 400.710938 90.65625 398.660156 94.132813 396.230469 97.339844 C 395.558594 98.230469 394.890625 98.78125 394.226563 99.003906 C 393.5625 99.226563 392.640625 99.195313 391.457031 98.910156 C 388.359375 98.179688 385.421875 96.765625 382.640625 94.660156 C 380.339844 92.917969 378.78125 91.050781 377.96875 89.0625 C 377.15625 87.074219 377.253906 85.417969 378.253906 84.09375 C 379.011719 83.097656 380.003906 82.34375 381.238281 81.828125 C 381.863281 81.542969 383.148438 81.15625 385.09375 80.667969 L 384.824219 79.578125 C 378.859375 80.675781 374.714844 82.761719 372.390625 85.828125 C 370.878906 87.824219 370.5625 90.078125 371.441406 92.597656 C 372.324219 95.113281 374.28125 97.523438 377.324219 99.828125 C 380.921875 102.550781 384.421875 103.976563 387.828125 104.105469 C 391.734375 104.222656 395.007813 102.542969 397.636719 99.066406 C 400.328125 95.515625 402.878906 91.53125 405.289063 87.117188 C 407.695313 82.703125 409.136719 80.183594 409.609375 79.558594 "/>
<path style=" stroke:none;fill-rule:nonzero;fill:rgb(89.7995%,13.699341%,16.499329%);fill-opacity:1;" d="M 447.3125 156.453125 C 448.542969 156.355469 449.699219 156.320313 450.78125 156.34375 C 451.863281 156.363281 452.828125 156.445313 453.679688 156.589844 C 454.527344 156.734375 455.230469 156.9375 455.789063 157.195313 C 456.34375 157.457031 456.730469 157.792969 456.945313 158.203125 C 457.089844 158.472656 457.136719 158.785156 457.097656 159.148438 C 457.054688 159.511719 456.957031 159.871094 456.804688 160.230469 C 456.648438 160.589844 456.453125 160.914063 456.222656 161.207031 C 455.988281 161.5 455.753906 161.710938 455.511719 161.835938 C 454.90625 162.15625 453.910156 161.890625 452.527344 161.042969 C 451.140625 160.195313 449.402344 158.664063 447.3125 156.453125 M 442.460938 168.605469 C 442.433594 169.078125 442.367188 169.492188 442.269531 169.847656 C 442.167969 170.203125 442.050781 170.492188 441.914063 170.722656 C 441.785156 170.949219 441.65625 171.097656 441.535156 171.160156 C 441.378906 171.242188 441.179688 171.214844 440.941406 171.078125 C 440.703125 170.9375 440.445313 170.726563 440.164063 170.441406 C 439.878906 170.15625 439.597656 169.8125 439.320313 169.40625 C 439.039063 169.003906 438.78125 168.574219 438.546875 168.121094 C 437.632813 166.390625 437.320313 164.84375 437.605469 163.472656 C 437.886719 162.101563 438.703125 160.757813 440.042969 159.449219 C 440.769531 160.957031 441.308594 162.324219 441.652344 163.546875 C 442 164.773438 442.242188 165.9375 442.386719 167.046875 C 442.460938 167.609375 442.484375 168.128906 442.460938 168.605469 M 468.023438 175.496094 C 468.691406 175.023438 469.371094 174.558594 470.066406 174.121094 C 473.117188 172.210938 476.882813 170.855469 480.296875 172 C 481.203125 170.253906 482.105469 168.507813 483.011719 166.761719 C 481.90625 165.273438 479.792969 164.835938 477.976563 165.214844 C 476.164063 165.59375 474.566406 166.636719 473.019531 167.660156 C 469.050781 170.289063 465.078125 172.917969 461.109375 175.546875 C 459.6875 176.488281 457.773438 177.429688 456.398438 176.421875 C 455.664063 175.878906 455.367188 174.945313 455.074219 174.082031 C 453.636719 169.859375 451.320313 165.941406 448.316406 162.644531 C 453.191406 165.507813 460.039063 164.382813 463.734375 160.105469 C 464.066406 159.726563 464.382813 159.300781 464.464844 158.804688 C 464.671875 157.511719 463.289063 156.570313 462.074219 156.078125 C 457.601563 154.269531 452.640625 153.683594 447.871094 154.402344 C 447.238281 154.496094 446.570313 154.609375 445.980469 154.363281 C 445.390625 154.117188 444.996094 153.554688 444.640625 153.023438 C 438.730469 144.265625 432.824219 135.503906 426.917969 126.742188 C 426.398438 125.972656 425.863281 125.152344 425.820313 124.226563 C 425.777344 123.214844 426.335938 122.289063 426.878906 121.4375 C 431.199219 114.714844 436.226563 108.445313 441.855469 102.773438 C 434.148438 102.058594 429 111.417969 421.363281 112.683594 C 424.808594 104.949219 424.722656 95.726563 421.140625 88.058594 C 420.847656 87.4375 420.453125 86.757813 419.78125 86.613281 C 419.433594 86.539063 419.070313 86.628906 418.734375 86.738281 C 416.253906 87.558594 414.269531 89.746094 413.695313 92.296875 C 413.121094 94.847656 413.976563 97.671875 415.867188 99.476563 C 416.21875 99.8125 416.632813 100.128906 417.117188 100.179688 C 417.578125 100.230469 418.050781 100.042969 418.492188 100.175781 C 419.1875 100.382813 419.421875 101.234375 419.523438 101.953125 C 419.925781 104.757813 420.066406 107.597656 419.9375 110.425781 C 419.898438 111.355469 419.796875 112.367188 419.15625 113.042969 C 418.421875 113.824219 417.226563 113.914063 416.15625 113.914063 C 413.339844 113.914063 410.527344 113.664063 407.757813 113.171875 C 406.726563 112.988281 400.476563 110.753906 399.949219 111.214844 C 399 112.039063 403.703125 115.148438 404.425781 115.628906 C 406.386719 116.929688 408.550781 117.964844 410.898438 118.308594 C 414.871094 118.890625 418.886719 117.453125 422.386719 115.484375 C 425.890625 113.519531 429.070313 111.007813 432.632813 109.152344 C 430.46875 112.675781 427.144531 115.316406 424.515625 118.507813 C 421.882813 121.695313 419.886719 125.960938 421.128906 129.90625 C 421.730469 131.824219 423.023438 133.429688 424.265625 135.007813 C 429.242188 141.339844 433.777344 148.023438 437.828125 154.988281 C 438.121094 155.484375 437.59375 156.460938 437.390625 155.921875 L 438.855469 157.460938 C 436.089844 158.800781 433.644531 161.011719 432.558594 163.886719 C 431.472656 166.761719 431.972656 170.3125 434.203125 172.425781 C 435.878906 174.015625 438.421875 174.636719 440.640625 173.996094 C 442.863281 173.359375 444.6875 171.484375 445.261719 169.246094 C 447.945313 171.992188 448.019531 176.609375 450.839844 179.214844 C 453.484375 181.65625 457.71875 181.453125 461.007813 179.988281 C 463.550781 178.855469 465.746094 177.113281 468.023438 175.496094 "/>
<path style=" stroke:none;fill-rule:nonzero;fill:rgb(89.7995%,13.699341%,16.499329%);fill-opacity:1;" d="M 480.484375 183.15625 C 479.226563 182.675781 478.089844 182.609375 477.070313 182.953125 C 476.128906 183.277344 474.78125 183.957031 473.027344 184.996094 C 471.050781 186.164063 469.078125 187.339844 467.109375 188.527344 C 463.742188 190.464844 460.289063 192.09375 456.761719 193.421875 L 457.175781 194.644531 C 459.929688 194.90625 462.316406 194.695313 464.332031 194.007813 C 466.292969 193.339844 469.367188 191.9375 473.550781 189.796875 C 478.015625 187.511719 481.441406 185.863281 483.824219 184.855469 C 482.144531 183.929688 481.03125 183.363281 480.484375 183.15625 "/>
<path style=" stroke:none;fill-rule:nonzero;fill:rgb(89.7995%,13.699341%,16.499329%);fill-opacity:1;" d="M 51.308594 329.414063 L 51.339844 335.992188 C 47.714844 336.148438 44.753906 335.421875 42.457031 333.816406 C 40.15625 332.207031 38.476563 329.769531 37.421875 326.496094 C 36.117188 322.449219 36.429688 318.675781 38.355469 315.179688 C 40.28125 311.683594 43.644531 309.160156 48.4375 307.617188 C 53.511719 305.980469 57.875 306.019531 61.527344 307.734375 C 65.175781 309.453125 67.691406 312.445313 69.066406 316.714844 C 70.269531 320.441406 70.140625 323.828125 68.6875 326.867188 C 67.832031 328.671875 66.292969 330.3125 64.078125 331.792969 L 60.660156 326.171875 C 62.125 325.300781 63.128906 324.148438 63.675781 322.710938 C 64.222656 321.269531 64.230469 319.734375 63.703125 318.097656 C 62.976563 315.839844 61.574219 314.265625 59.5 313.382813 C 57.425781 312.496094 54.570313 312.640625 50.941406 313.808594 C 47.085938 315.050781 44.566406 316.628906 43.375 318.542969 C 42.1875 320.453125 41.949219 322.519531 42.664063 324.738281 C 43.191406 326.375 44.164063 327.613281 45.582031 328.457031 C 47.003906 329.300781 48.910156 329.617188 51.308594 329.414063 "/>
<path style=" stroke:none;fill-rule:nonzero;fill:rgb(89.7995%,13.699341%,16.499329%);fill-opacity:1;" d="M 47.761719 351.433594 L 45.203125 345.851563 L 66.292969 336.1875 L 68.667969 341.371094 L 65.667969 342.746094 C 67.492188 342.984375 68.792969 343.351563 69.566406 343.855469 C 70.34375 344.355469 70.9375 345.058594 71.347656 345.957031 C 71.929688 347.230469 72.140625 348.613281 71.980469 350.113281 L 66.320313 350.617188 C 66.5 349.398438 66.402344 348.382813 66.035156 347.574219 C 65.675781 346.792969 65.15625 346.230469 64.476563 345.886719 C 63.796875 345.539063 62.824219 345.46875 61.558594 345.675781 C 60.289063 345.878906 57.863281 346.804688 54.273438 348.445313 "/>
<path style=" stroke:none;fill-rule:nonzero;fill:rgb(89.7995%,13.699341%,16.499329%);fill-opacity:1;" d="M 66.050781 361.980469 C 64.074219 363.152344 62.835938 364.523438 62.34375 366.085938 C 61.847656 367.648438 62.007813 369.121094 62.824219 370.496094 C 63.640625 371.875 64.855469 372.71875 66.460938 373.027344 C 68.066406 373.335938 69.871094 372.898438 71.875 371.710938 C 73.828125 370.550781 75.054688 369.191406 75.550781 367.636719 C 76.050781 366.078125 75.894531 364.609375 75.074219 363.230469 C 74.257813 361.855469 73.042969 361.007813 71.4375 360.691406 C 69.824219 360.375 68.03125 360.804688 66.050781 361.980469 M 63.125 356.402344 C 64.878906 355.359375 66.832031 354.785156 68.984375 354.679688 C 71.140625 354.570313 73.117188 355.050781 74.921875 356.121094 C 76.726563 357.195313 78.210938 358.707031 79.367188 360.660156 C 81.15625 363.679688 81.644531 366.734375 80.828125 369.828125 C 80.011719 372.917969 78.105469 375.351563 75.113281 377.128906 C 72.09375 378.917969 69.015625 379.429688 65.875 378.65625 C 62.734375 377.886719 60.285156 376.023438 58.535156 373.070313 C 57.449219 371.238281 56.828125 369.25 56.667969 367.101563 C 56.511719 364.949219 56.976563 362.96875 58.058594 361.15625 C 59.144531 359.347656 60.832031 357.761719 63.125 356.402344 "/>
<path style=" stroke:none;fill-rule:nonzero;fill:rgb(89.7995%,13.699341%,16.499329%);fill-opacity:1;" d="M 90.386719 372.886719 L 94.976563 369.542969 L 98.589844 374.507813 L 93.996094 377.847656 Z M 69.078125 388.382813 L 87.839844 374.734375 L 91.453125 379.699219 L 72.691406 393.347656 "/>
<path style=" stroke:none;fill-rule:nonzero;fill:rgb(89.7995%,13.699341%,16.499329%);fill-opacity:1;" d="M 81.03125 393.785156 L 85.785156 397.816406 C 85.054688 398.796875 84.722656 399.792969 84.78125 400.804688 C 84.839844 401.8125 85.34375 402.863281 86.289063 403.949219 C 87.332031 405.148438 88.335938 405.859375 89.300781 406.078125 C 89.960938 406.21875 90.550781 406.0625 91.066406 405.613281 C 91.417969 405.308594 91.613281 404.945313 91.652344 404.523438 C 91.671875 404.101563 91.425781 403.40625 90.914063 402.445313 C 88.488281 397.992188 87.179688 394.96875 86.988281 393.378906 C 86.730469 391.171875 87.441406 389.335938 89.121094 387.871094 C 90.636719 386.554688 92.433594 386.042969 94.507813 386.339844 C 96.582031 386.640625 98.714844 388.046875 100.902344 390.5625 C 102.988281 392.957031 104.148438 395.074219 104.382813 396.917969 C 104.613281 398.761719 104.160156 400.570313 103.015625 402.335938 L 98.40625 398.675781 C 98.925781 397.894531 99.136719 397.085938 99.046875 396.246094 C 98.957031 395.410156 98.488281 394.507813 97.648438 393.542969 C 96.585938 392.324219 95.65625 391.597656 94.855469 391.367188 C 94.308594 391.226563 93.84375 391.320313 93.457031 391.65625 C 93.128906 391.945313 92.980469 392.34375 93.019531 392.851563 C 93.074219 393.535156 93.898438 395.355469 95.480469 398.308594 C 97.070313 401.261719 97.882813 403.582031 97.917969 405.265625 C 97.9375 406.949219 97.210938 408.433594 95.738281 409.714844 C 94.132813 411.109375 92.171875 411.640625 89.851563 411.304688 C 87.53125 410.96875 85.230469 409.488281 82.945313 406.863281 C 80.871094 404.480469 79.710938 402.171875 79.46875 399.941406 C 79.222656 397.710938 79.746094 395.65625 81.03125 393.785156 "/>
<path style=" stroke:none;fill-rule:nonzero;fill:rgb(89.7995%,13.699341%,16.499329%);fill-opacity:1;" d="M 98.503906 413.539063 L 103.691406 416.988281 C 103.082031 418.050781 102.867188 419.078125 103.042969 420.074219 C 103.21875 421.070313 103.839844 422.054688 104.90625 423.023438 C 106.078125 424.09375 107.160156 424.683594 108.144531 424.789063 C 108.816406 424.851563 109.382813 424.628906 109.84375 424.121094 C 110.15625 423.777344 110.308594 423.394531 110.300781 422.972656 C 110.269531 422.550781 109.945313 421.890625 109.324219 420.992188 C 106.398438 416.851563 104.746094 414 104.375 412.441406 C 103.859375 410.28125 104.351563 408.375 105.851563 406.726563 C 107.203125 405.242188 108.929688 404.523438 111.023438 404.582031 C 113.121094 404.636719 115.402344 405.785156 117.867188 408.03125 C 120.21875 410.167969 121.613281 412.136719 122.058594 413.941406 C 122.507813 415.746094 122.261719 417.589844 121.332031 419.480469 L 116.328125 416.378906 C 116.753906 415.542969 116.871094 414.714844 116.683594 413.894531 C 116.496094 413.070313 115.925781 412.230469 114.980469 411.367188 C 113.78125 410.28125 112.773438 409.667969 111.953125 409.53125 C 111.394531 409.453125 110.941406 409.605469 110.597656 409.980469 C 110.304688 410.304688 110.207031 410.71875 110.300781 411.21875 C 110.4375 411.890625 111.464844 413.605469 113.382813 416.355469 C 115.300781 419.101563 116.378906 421.3125 116.609375 422.980469 C 116.824219 424.652344 116.273438 426.210938 114.960938 427.652344 C 113.527344 429.226563 111.640625 429.980469 109.300781 429.917969 C 106.953125 429.851563 104.496094 428.648438 101.921875 426.304688 C 99.585938 424.179688 98.164063 422.023438 97.664063 419.835938 C 97.164063 417.644531 97.445313 415.546875 98.503906 413.539063 "/>
<path style=" stroke:none;fill-rule:nonzero;fill:rgb(89.7995%,13.699341%,16.499329%);fill-opacity:1;" d="M 132.953125 436.171875 C 132.160156 435.929688 130.96875 435.457031 129.371094 434.761719 C 127.773438 434.066406 126.660156 433.707031 126.027344 433.683594 C 125.046875 433.679688 124.300781 434.03125 123.792969 434.742188 C 123.292969 435.441406 123.121094 436.234375 123.277344 437.113281 C 123.433594 437.996094 123.914063 438.726563 124.71875 439.304688 C 125.617188 439.945313 126.6875 440.265625 127.929688 440.261719 C 128.855469 440.242188 129.648438 439.976563 130.304688 439.460938 C 130.738281 439.128906 131.386719 438.363281 132.242188 437.167969 Z M 129.175781 427.339844 L 125.234375 423.28125 C 127.050781 421.820313 128.890625 421.097656 130.761719 421.113281 C 132.632813 421.128906 134.792969 422.011719 137.246094 423.769531 C 139.472656 425.363281 140.9375 426.8125 141.652344 428.121094 C 142.363281 429.429688 142.648438 430.644531 142.515625 431.777344 C 142.375 432.902344 141.53125 434.550781 139.980469 436.71875 L 135.753906 442.507813 C 134.566406 444.164063 133.769531 445.441406 133.367188 446.34375 C 132.960938 447.246094 132.65625 448.304688 132.449219 449.519531 L 127.515625 445.980469 C 127.621094 445.554688 127.8125 444.949219 128.089844 444.164063 C 128.21875 443.808594 128.300781 443.570313 128.332031 443.449219 C 126.886719 443.667969 125.527344 443.636719 124.261719 443.355469 C 122.992188 443.074219 121.808594 442.539063 120.707031 441.75 C 118.765625 440.359375 117.613281 438.738281 117.25 436.882813 C 116.886719 435.027344 117.28125 433.292969 118.433594 431.683594 C 119.195313 430.617188 120.132813 429.851563 121.238281 429.382813 C 122.347656 428.910156 123.519531 428.78125 124.753906 428.996094 C 125.988281 429.207031 127.589844 429.769531 129.554688 430.675781 C 132.203125 431.90625 134.109375 432.65625 135.28125 432.925781 L 135.636719 432.425781 C 136.324219 431.46875 136.578125 430.613281 136.398438 429.867188 C 136.214844 429.117188 135.46875 428.273438 134.15625 427.332031 C 133.265625 426.695313 132.449219 426.375 131.699219 426.367188 C 130.953125 426.359375 130.113281 426.683594 129.175781 427.339844 "/>
<path style=" stroke:none;fill-rule:nonzero;fill:rgb(89.7995%,13.699341%,16.499329%);fill-opacity:1;" d="M 157.023438 463.367188 L 151.632813 460.429688 L 157.296875 450.035156 C 158.496094 447.835938 159.15625 446.347656 159.277344 445.578125 C 159.398438 444.804688 159.296875 444.101563 158.976563 443.460938 C 158.652344 442.820313 158.125 442.300781 157.398438 441.902344 C 156.464844 441.394531 155.484375 441.195313 154.464844 441.300781 C 153.445313 441.410156 152.566406 441.808594 151.832031 442.503906 C 151.097656 443.199219 150.109375 444.683594 148.871094 446.960938 L 143.84375 456.191406 L 138.453125 453.253906 L 149.550781 432.878906 L 154.558594 435.605469 L 152.929688 438.597656 C 155.960938 437.265625 158.824219 437.332031 161.523438 438.804688 C 162.714844 439.453125 163.683594 440.257813 164.433594 441.222656 C 165.1875 442.1875 165.632813 443.140625 165.777344 444.082031 C 165.917969 445.019531 165.859375 445.964844 165.597656 446.917969 C 165.335938 447.871094 164.777344 449.132813 163.921875 450.707031 "/>
<path style=" stroke:none;fill-rule:nonzero;fill:rgb(89.7995%,13.699341%,16.499329%);fill-opacity:1;" d="M 183.347656 449.382813 L 181.445313 453.890625 L 177.582031 452.261719 L 173.949219 460.878906 C 173.214844 462.625 172.824219 463.65625 172.777344 463.976563 C 172.726563 464.296875 172.796875 464.605469 172.980469 464.902344 C 173.160156 465.203125 173.441406 465.429688 173.816406 465.589844 C 174.339844 465.808594 175.175781 465.945313 176.320313 466.003906 L 174.953125 470.59375 C 173.402344 470.605469 171.792969 470.257813 170.128906 469.558594 C 169.109375 469.128906 168.261719 468.566406 167.585938 467.882813 C 166.910156 467.195313 166.496094 466.5 166.34375 465.792969 C 166.191406 465.089844 166.234375 464.242188 166.476563 463.253906 C 166.636719 462.546875 167.132813 461.191406 167.976563 459.191406 L 171.90625 449.871094 L 169.308594 448.777344 L 171.207031 444.265625 L 173.804688 445.363281 L 175.59375 441.113281 L 182.664063 440.203125 L 179.480469 447.753906 "/>
<path style=" stroke:none;fill-rule:nonzero;fill:rgb(89.7995%,13.699341%,16.499329%);fill-opacity:1;" d="M 203.742188 460.933594 L 208.402344 462.011719 C 211.425781 462.714844 213.34375 463.023438 214.152344 462.941406 C 214.964844 462.859375 215.65625 462.558594 216.226563 462.03125 C 216.796875 461.507813 217.191406 460.773438 217.40625 459.839844 C 217.652344 458.789063 217.566406 457.875 217.15625 457.101563 C 216.746094 456.324219 216.050781 455.734375 215.066406 455.328125 C 214.574219 455.136719 213.050781 454.746094 210.496094 454.15625 L 205.578125 453.015625 Z M 193.273438 477.476563 L 200.503906 446.277344 L 213.761719 449.351563 C 217.09375 450.125 219.453125 450.964844 220.835938 451.875 C 222.214844 452.789063 223.195313 454.0625 223.769531 455.707031 C 224.34375 457.351563 224.417969 459.09375 223.992188 460.9375 C 223.449219 463.28125 222.3125 465.054688 220.585938 466.257813 C 218.855469 467.464844 216.574219 467.949219 213.742188 467.714844 C 214.921875 468.824219 215.84375 469.957031 216.511719 471.113281 C 217.175781 472.269531 217.980469 474.234375 218.921875 477.007813 L 221.320313 483.976563 L 213.785156 482.230469 L 210.804688 474.386719 C 209.75 471.585938 209 469.800781 208.550781 469.03125 C 208.101563 468.261719 207.570313 467.683594 206.957031 467.296875 C 206.34375 466.90625 205.3125 466.542969 203.867188 466.207031 L 202.589844 465.914063 L 199.570313 478.9375 "/>
<path style=" stroke:none;fill-rule:nonzero;fill:rgb(89.7995%,13.699341%,16.499329%);fill-opacity:1;" d="M 233.390625 473.4375 C 233.191406 475.730469 233.582031 477.53125 234.5625 478.84375 C 235.546875 480.160156 236.835938 480.886719 238.429688 481.023438 C 240.023438 481.164063 241.417969 480.671875 242.605469 479.546875 C 243.789063 478.421875 244.484375 476.699219 244.6875 474.378906 C 244.886719 472.113281 244.496094 470.328125 243.523438 469.011719 C 242.546875 467.699219 241.261719 466.972656 239.667969 466.835938 C 238.070313 466.695313 236.675781 467.1875 235.480469 468.3125 C 234.285156 469.4375 233.589844 471.144531 233.390625 473.4375 M 227.152344 472.5625 C 227.328125 470.53125 228 468.609375 229.164063 466.796875 C 230.335938 464.984375 231.878906 463.65625 233.800781 462.816406 C 235.722656 461.972656 237.816406 461.652344 240.078125 461.851563 C 243.578125 462.152344 246.34375 463.539063 248.378906 466.003906 C 250.414063 468.472656 251.28125 471.4375 250.980469 474.90625 C 250.675781 478.402344 249.292969 481.199219 246.839844 483.304688 C 244.382813 485.40625 241.441406 486.308594 238.015625 486.011719 C 235.898438 485.824219 233.921875 485.171875 232.082031 484.046875 C 230.242188 482.917969 228.902344 481.390625 228.0625 479.453125 C 227.222656 477.515625 226.917969 475.21875 227.152344 472.5625 "/>
<path style=" stroke:none;fill-rule:nonzero;fill:rgb(89.7995%,13.699341%,16.499329%);fill-opacity:1;" d="M 272.503906 485.988281 L 272.363281 482.515625 C 271.570313 483.785156 270.5 484.804688 269.152344 485.574219 C 267.804688 486.339844 266.367188 486.757813 264.839844 486.816406 C 263.28125 486.878906 261.871094 486.589844 260.605469 485.957031 C 259.34375 485.320313 258.410156 484.394531 257.808594 483.183594 C 257.207031 481.96875 256.859375 480.265625 256.773438 478.085938 L 256.191406 463.414063 L 262.328125 463.171875 L 262.75 473.824219 C 262.878906 477.082031 263.070313 479.078125 263.324219 479.804688 C 263.578125 480.53125 264.015625 481.09375 264.628906 481.5 C 265.242188 481.90625 266.007813 482.089844 266.925781 482.054688 C 267.972656 482.011719 268.898438 481.6875 269.707031 481.082031 C 270.511719 480.472656 271.050781 479.738281 271.324219 478.871094 C 271.59375 478.011719 271.664063 475.917969 271.535156 472.601563 L 271.144531 462.820313 L 277.277344 462.578125 L 278.199219 485.761719 "/>
<path style=" stroke:none;fill-rule:nonzero;fill:rgb(89.7995%,13.699341%,16.499329%);fill-opacity:1;" d="M 289.84375 472.113281 C 290.253906 474.539063 291.023438 476.234375 292.15625 477.203125 C 293.285156 478.171875 294.542969 478.539063 295.921875 478.304688 C 297.398438 478.054688 298.550781 477.265625 299.375 475.9375 C 300.199219 474.609375 300.417969 472.808594 300.03125 470.539063 C 299.632813 468.171875 298.847656 466.496094 297.675781 465.511719 C 296.503906 464.527344 295.171875 464.164063 293.679688 464.414063 C 292.226563 464.660156 291.128906 465.425781 290.378906 466.714844 C 289.628906 468 289.449219 469.800781 289.84375 472.113281 M 286.710938 486.445313 L 293.765625 486.113281 C 294.015625 486.898438 294.375 487.40625 294.84375 487.636719 C 295.488281 487.972656 296.429688 488.035156 297.667969 487.824219 C 299.246094 487.558594 300.390625 487.121094 301.101563 486.511719 C 301.578125 486.105469 301.894531 485.527344 302.046875 484.777344 C 302.148438 484.242188 302.085938 483.300781 301.855469 481.953125 L 301.289063 478.613281 C 299.898438 481.390625 297.824219 483.011719 295.070313 483.480469 C 291.996094 484 289.34375 483.113281 287.105469 480.816406 C 285.351563 479.003906 284.214844 476.566406 283.695313 473.507813 C 283.046875 469.671875 283.472656 466.585938 284.976563 464.25 C 286.476563 461.914063 288.601563 460.511719 291.34375 460.046875 C 294.171875 459.566406 296.714844 460.414063 298.972656 462.585938 L 298.429688 459.378906 L 304.09375 458.417969 L 307.574219 478.945313 C 308.03125 481.644531 308.148438 483.699219 307.929688 485.109375 C 307.710938 486.523438 307.265625 487.675781 306.589844 488.574219 C 305.914063 489.46875 304.941406 490.246094 303.671875 490.90625 C 302.402344 491.566406 300.742188 492.066406 298.6875 492.414063 C 294.8125 493.074219 291.949219 492.875 290.101563 491.820313 C 288.253906 490.765625 287.15625 489.21875 286.8125 487.179688 C 286.777344 486.980469 286.742188 486.738281 286.710938 486.445313 "/>
<path style=" stroke:none;fill-rule:nonzero;fill:rgb(89.7995%,13.699341%,16.499329%);fill-opacity:1;" d="M 325.519531 462.289063 C 324.964844 460.597656 324.136719 459.4375 323.035156 458.800781 C 321.933594 458.167969 320.78125 458.03125 319.582031 458.390625 C 318.296875 458.777344 317.378906 459.5625 316.820313 460.746094 C 316.265625 461.933594 316.234375 463.328125 316.730469 464.925781 Z M 326.96875 468.328125 L 333.121094 467.554688 C 333.011719 469.929688 332.3125 471.921875 331.027344 473.53125 C 329.738281 475.144531 327.875 476.316406 325.433594 477.046875 C 321.570313 478.207031 318.332031 477.804688 315.71875 475.835938 C 313.644531 474.253906 312.148438 471.921875 311.222656 468.835938 C 310.117188 465.15625 310.214844 461.984375 311.511719 459.320313 C 312.808594 456.65625 314.929688 454.882813 317.875 454 C 321.179688 453.007813 324.117188 453.316406 326.683594 454.921875 C 329.25 456.535156 331.167969 459.605469 332.4375 464.132813 L 317.707031 468.554688 C 318.273438 470.289063 319.152344 471.5 320.351563 472.199219 C 321.550781 472.894531 322.824219 473.042969 324.175781 472.636719 C 325.097656 472.359375 325.796875 471.875 326.273438 471.183594 C 326.75 470.496094 326.980469 469.542969 326.96875 468.328125 "/>
<path style=" stroke:none;fill-rule:nonzero;fill:rgb(89.7995%,13.699341%,16.499329%);fill-opacity:1;" d="M 355.226563 465.765625 L 339.929688 437.625 L 348.433594 433.003906 L 363.972656 449.425781 L 358.589844 427.484375 L 367.109375 422.855469 L 382.402344 450.992188 L 377.125 453.863281 L 365.085938 431.710938 L 371.539063 456.898438 L 366.066406 459.871094 L 348.464844 440.746094 L 360.503906 462.894531 "/>
<path style=" stroke:none;fill-rule:nonzero;fill:rgb(89.7995%,13.699341%,16.499329%);fill-opacity:1;" d="M 393.476563 429.019531 C 393.003906 429.703125 392.195313 430.699219 391.054688 432.015625 C 389.910156 433.328125 389.230469 434.28125 389.023438 434.875 C 388.722656 435.8125 388.835938 436.628906 389.359375 437.328125 C 389.878906 438.015625 390.578125 438.417969 391.46875 438.535156 C 392.355469 438.648438 393.195313 438.410156 393.988281 437.816406 C 394.871094 437.152344 395.5 436.226563 395.863281 435.039063 C 396.128906 434.152344 396.109375 433.316406 395.816406 432.535156 C 395.628906 432.019531 395.09375 431.175781 394.210938 430 Z M 383.917969 429.96875 L 378.859375 432.507813 C 378.011719 430.339844 377.878906 428.367188 378.453125 426.585938 C 379.027344 424.804688 380.523438 423.011719 382.933594 421.199219 C 385.125 419.554688 386.949219 418.589844 388.410156 418.304688 C 389.871094 418.019531 391.117188 418.113281 392.152344 418.582031 C 393.191406 419.050781 394.507813 420.351563 396.109375 422.484375 L 400.355469 428.25 C 401.582031 429.882813 402.5625 431.027344 403.300781 431.683594 C 404.039063 432.339844 404.957031 432.949219 406.054688 433.507813 L 401.195313 437.15625 C 400.824219 436.925781 400.304688 436.5625 399.636719 436.058594 C 399.335938 435.832031 399.132813 435.679688 399.027344 435.613281 C 398.800781 437.058594 398.363281 438.34375 397.714844 439.46875 C 397.066406 440.59375 396.199219 441.5625 395.117188 442.375 C 393.207031 443.808594 391.3125 444.421875 389.433594 444.210938 C 387.554688 444 386.019531 443.105469 384.832031 441.519531 C 384.046875 440.472656 383.59375 439.347656 383.480469 438.152344 C 383.363281 436.957031 383.589844 435.800781 384.164063 434.683594 C 384.742188 433.570313 385.757813 432.210938 387.214844 430.609375 C 389.183594 428.457031 390.472656 426.859375 391.078125 425.824219 L 390.710938 425.335938 C 390.003906 424.390625 389.261719 423.894531 388.496094 423.839844 C 387.726563 423.789063 386.695313 424.25 385.402344 425.21875 C 384.53125 425.875 383.980469 426.558594 383.746094 427.269531 C 383.515625 427.980469 383.574219 428.878906 383.917969 429.96875 "/>
<path style=" stroke:none;fill-rule:nonzero;fill:rgb(89.7995%,13.699341%,16.499329%);fill-opacity:1;" d="M 415.316406 425.082031 L 410.796875 429.234375 L 395.101563 412.148438 L 399.300781 408.289063 L 401.53125 410.722656 C 401.195313 408.914063 401.144531 407.5625 401.386719 406.671875 C 401.625 405.78125 402.109375 405 402.835938 404.328125 C 403.867188 403.382813 405.121094 402.757813 406.597656 402.445313 L 408.816406 407.675781 C 407.605469 407.882813 406.667969 408.285156 406.015625 408.886719 C 405.382813 409.46875 405.007813 410.132813 404.886719 410.886719 C 404.765625 411.640625 405 412.585938 405.585938 413.730469 C 406.171875 414.871094 407.800781 416.898438 410.46875 419.804688 "/>
<path style=" stroke:none;fill-rule:nonzero;fill:rgb(89.7995%,13.699341%,16.499329%);fill-opacity:1;" d="M 419.722656 404.425781 C 421.445313 405.949219 423.128906 406.703125 424.769531 406.695313 C 426.410156 406.6875 427.761719 406.082031 428.820313 404.878906 C 429.878906 403.679688 430.308594 402.265625 430.109375 400.644531 C 429.910156 399.019531 428.9375 397.4375 427.191406 395.894531 C 425.488281 394.394531 423.816406 393.644531 422.183594 393.648438 C 420.546875 393.652344 419.199219 394.253906 418.140625 395.453125 C 417.078125 396.65625 416.648438 398.070313 416.84375 399.699219 C 417.035156 401.328125 417.996094 402.902344 419.722656 404.425781 M 415.3125 408.925781 C 413.785156 407.578125 412.636719 405.894531 411.871094 403.878906 C 411.105469 401.863281 410.957031 399.832031 411.421875 397.785156 C 411.886719 395.738281 412.871094 393.863281 414.375 392.160156 C 416.699219 389.53125 419.453125 388.128906 422.648438 387.953125 C 425.839844 387.78125 428.742188 388.84375 431.351563 391.148438 C 433.984375 393.472656 435.414063 396.246094 435.648438 399.46875 C 435.882813 402.695313 434.859375 405.597656 432.585938 408.175781 C 431.179688 409.769531 429.476563 410.972656 427.476563 411.78125 C 425.480469 412.59375 423.453125 412.761719 421.394531 412.285156 C 419.339844 411.808594 417.3125 410.691406 415.3125 408.925781 "/>
<path style=" stroke:none;fill-rule:nonzero;fill:rgb(89.7995%,13.699341%,16.499329%);fill-opacity:1;" d="M 442.335938 367.164063 L 439.816406 372.773438 C 438.703125 372.261719 437.691406 372.125 436.78125 372.375 C 435.867188 372.625 435.085938 373.222656 434.4375 374.171875 C 433.570313 375.433594 433.316406 376.738281 433.675781 378.085938 C 434.03125 379.433594 435.230469 380.808594 437.273438 382.207031 C 439.546875 383.761719 441.410156 384.480469 442.867188 384.359375 C 444.328125 384.238281 445.5 383.535156 446.378906 382.25 C 447.039063 381.289063 447.304688 380.316406 447.179688 379.328125 C 447.050781 378.339844 446.40625 377.261719 445.246094 376.097656 L 449.503906 371.703125 C 451.429688 373.785156 452.476563 375.957031 452.636719 378.21875 C 452.796875 380.484375 452.035156 382.847656 450.347656 385.3125 C 448.429688 388.109375 446.015625 389.738281 443.109375 390.191406 C 440.203125 390.644531 437.1875 389.800781 434.066406 387.660156 C 430.90625 385.496094 429.019531 382.976563 428.402344 380.101563 C 427.785156 377.226563 428.453125 374.363281 430.402344 371.515625 C 432.003906 369.183594 433.773438 367.675781 435.71875 366.984375 C 437.664063 366.300781 439.871094 366.359375 442.335938 367.164063 "/>
<path style=" stroke:none;fill-rule:nonzero;fill:rgb(89.7995%,13.699341%,16.499329%);fill-opacity:1;" d="M 455.394531 353.890625 C 455.261719 354.710938 454.960938 355.957031 454.492188 357.636719 C 454.019531 359.3125 453.820313 360.46875 453.886719 361.09375 C 454.015625 362.066406 454.46875 362.757813 455.242188 363.164063 C 456.003906 363.5625 456.808594 363.625 457.660156 363.347656 C 458.511719 363.070313 459.171875 362.492188 459.628906 361.617188 C 460.144531 360.636719 460.3125 359.535156 460.136719 358.304688 C 459.992188 357.390625 459.617188 356.644531 459.019531 356.066406 C 458.628906 355.679688 457.78125 355.144531 456.480469 354.460938 Z M 447.167969 358.847656 L 443.6875 363.3125 C 441.992188 361.71875 441.023438 359.992188 440.78125 358.136719 C 440.539063 356.28125 441.117188 354.019531 442.519531 351.351563 C 443.792969 348.925781 445.027344 347.269531 446.222656 346.386719 C 447.421875 345.5 448.585938 345.050781 449.722656 345.027344 C 450.859375 345.007813 452.609375 345.617188 454.96875 346.859375 L 461.28125 350.246094 C 463.089844 351.195313 464.464844 351.808594 465.414063 352.082031 C 466.363281 352.359375 467.453125 352.515625 468.683594 352.554688 L 465.859375 357.929688 C 465.425781 357.882813 464.796875 357.777344 463.980469 357.609375 C 463.609375 357.53125 463.363281 357.484375 463.238281 357.46875 C 463.65625 358.871094 463.8125 360.21875 463.707031 361.511719 C 463.601563 362.808594 463.234375 364.054688 462.605469 365.253906 C 461.496094 367.367188 460.046875 368.734375 458.261719 369.347656 C 456.472656 369.964844 454.703125 369.8125 452.949219 368.890625 C 451.789063 368.28125 450.898438 367.460938 450.28125 366.429688 C 449.664063 365.398438 449.375 364.257813 449.414063 363.003906 C 449.457031 361.75 449.789063 360.085938 450.417969 358.015625 C 451.273438 355.222656 451.753906 353.230469 451.855469 352.03125 L 451.316406 351.75 C 450.269531 351.199219 449.390625 351.066406 448.675781 351.351563 C 447.960938 351.632813 447.226563 352.488281 446.472656 353.921875 C 445.964844 354.886719 445.761719 355.742188 445.855469 356.484375 C 445.953125 357.222656 446.390625 358.011719 447.167969 358.847656 "/>
<path style=" stroke:none;fill-rule:nonzero;fill:rgb(89.7995%,13.699341%,16.499329%);fill-opacity:1;" d="M 471.105469 346.574219 L 449.695313 337.644531 L 452.058594 331.976563 L 473.46875 340.910156 Z M 446.789063 336.433594 L 441.546875 334.246094 L 443.910156 328.578125 L 449.152344 330.765625 "/>
<path style=" stroke:none;fill-rule:nonzero;fill:rgb(89.7995%,13.699341%,16.499329%);fill-opacity:1;" d="M 482.816406 313.230469 L 480.996094 319.09375 L 469.6875 315.585938 C 467.296875 314.84375 465.710938 314.488281 464.929688 314.519531 C 464.148438 314.554688 463.480469 314.789063 462.914063 315.234375 C 462.351563 315.675781 461.945313 316.292969 461.699219 317.085938 C 461.382813 318.101563 461.378906 319.101563 461.6875 320.078125 C 461.992188 321.058594 462.558594 321.839844 463.382813 322.425781 C 464.207031 323.007813 465.859375 323.683594 468.335938 324.449219 L 478.371094 327.5625 L 476.550781 333.429688 L 454.394531 326.554688 L 456.082031 321.109375 L 459.339844 322.117188 C 457.433594 319.40625 456.9375 316.585938 457.847656 313.652344 C 458.246094 312.355469 458.847656 311.246094 459.644531 310.320313 C 460.445313 309.394531 461.289063 308.769531 462.183594 308.441406 C 463.078125 308.117188 464.019531 307.988281 465.003906 308.058594 C 465.988281 308.128906 467.335938 308.429688 469.046875 308.960938 "/>
<path style=" stroke:none;fill-rule:nonzero;fill:rgb(89.7995%,13.699341%,16.499329%);fill-opacity:1;" d="M 313.609375 387.671875 C 240.160156 387.671875 180.617188 328.125 180.617188 254.675781 C 180.617188 181.226563 240.160156 121.679688 313.609375 121.679688 C 332.066406 121.679688 349.644531 125.445313 365.621094 132.238281 C 336.972656 107.117188 299.4375 91.878906 258.339844 91.878906 C 168.429688 91.878906 95.542969 164.765625 95.542969 254.675781 C 95.542969 344.585938 168.429688 417.472656 258.339844 417.472656 C 299.4375 417.472656 336.972656 402.234375 365.621094 377.109375 C 349.644531 383.90625 332.066406 387.671875 313.609375 387.671875 "/>
</g>
</svg>
